<svg id="visual" viewBox="0 0 900 120" width="900" height="120" xmlns="http://www.w3.org/2000/svg" xmlns:xlink="http://www.w3.org/1999/xlink" version="1.1"><path d="M0 86L18.8 83.2C37.7 80.3 75.3 74.7 112.8 76.5C150.3 78.3 187.7 87.7 225.2 90.7C262.7 93.7 300.3 90.3 337.8 85.8C375.3 81.3 412.7 75.7 450.2 76C487.7 76.3 525.3 82.7 562.8 86.5C600.3 90.3 637.7 91.7 675.2 91.3C712.7 91 750.3 89 787.8 87.8C825.3 86.7 862.7 86.3 881.3 86.2L900 86L900 0L881.3 0C862.7 0 825.3 0 787.8 0C750.3 0 712.7 0 675.2 0C637.7 0 600.3 0 562.8 0C525.3 0 487.7 0 450.2 0C412.7 0 375.3 0 337.8 0C300.3 0 262.7 0 225.2 0C187.7 0 150.3 0 112.8 0C75.3 0 37.7 0 18.8 0L0 0Z" fill="#009473"></path><path d="M0 70L18.8 65.5C37.7 61 75.3 52 112.8 51.3C150.3 50.7 187.7 58.3 225.2 60.3C262.7 62.3 300.3 58.7 337.8 59.7C375.3 60.7 412.7 66.3 450.2 65.8C487.7 65.3 525.3 58.7 562.8 56C600.3 53.3 637.7 54.7 675.2 57.7C712.7 60.7 750.3 65.3 787.8 67.2C825.3 69 862.7 68 881.3 67.5L900 67L900 0L881.3 0C862.7 0 825.3 0 787.8 0C750.3 0 712.7 0 675.2 0C637.7 0 600.3 0 562.8 0C525.3 0 487.7 0 450.2 0C412.7 0 375.3 0 337.8 0C300.3 0 262.7 0 225.2 0C187.7 0 150.3 0 112.8 0C75.3 0 37.7 0 18.8 0L0 0Z" fill="#27c986"></path><path d="M0 33L18.8 35.2C37.7 37.3 75.3 41.7 112.8 41.7C150.3 41.7 187.7 37.3 225.2 31.8C262.7 26.3 300.3 19.7 337.8 20.5C375.3 21.3 412.7 29.7 450.2 34.3C487.7 39 525.3 40 562.8 39.8C600.3 39.7 637.7 38.3 675.2 33.5C712.7 28.7 750.3 20.3 787.8 16.7C825.3 13 862.7 14 881.3 14.5L900 15L900 0L881.3 0C862.7 0 825.3 0 787.8 0C750.3 0 712.7 0 675.2 0C637.7 0 600.3 0 562.8 0C525.3 0 487.7 0 450.2 0C412.7 0 375.3 0 337.8 0C300.3 0 262.7 0 225.2 0C187.7 0 150.3 0 112.8 0C75.3 0 37.7 0 18.8 0L0 0Z" fill="#63ff8d"></path></svg>