<svg id="visual" viewBox="0 0 900 100" width="900" height="100" xmlns="http://www.w3.org/2000/svg" xmlns:xlink="http://www.w3.org/1999/xlink" version="1.1"><path d="M0 16L41 16L41 31L82 31L82 45L123 45L123 35L164 35L164 43L205 43L205 35L245 35L245 44L286 44L286 17L327 17L327 37L368 37L368 27L409 27L409 40L450 40L450 30L491 30L491 18L532 18L532 19L573 19L573 41L614 41L614 20L655 20L655 46L695 46L695 16L736 16L736 35L777 35L777 25L818 25L818 48L859 48L859 32L900 32L900 32L900 101L900 101L859 101L859 101L818 101L818 101L777 101L777 101L736 101L736 101L695 101L695 101L655 101L655 101L614 101L614 101L573 101L573 101L532 101L532 101L491 101L491 101L450 101L450 101L409 101L409 101L368 101L368 101L327 101L327 101L286 101L286 101L245 101L245 101L205 101L205 101L164 101L164 101L123 101L123 101L82 101L82 101L41 101L41 101L0 101Z" fill="#686868"></path><path d="M0 65L41 65L41 52L82 52L82 47L123 47L123 65L164 65L164 41L205 41L205 46L245 46L245 48L286 48L286 54L327 54L327 46L368 46L368 66L409 66L409 56L450 56L450 46L491 46L491 54L532 54L532 44L573 44L573 44L614 44L614 54L655 54L655 53L695 53L695 55L736 55L736 40L777 40L777 52L818 52L818 53L859 53L859 55L900 55L900 65L900 101L900 101L859 101L859 101L818 101L818 101L777 101L777 101L736 101L736 101L695 101L695 101L655 101L655 101L614 101L614 101L573 101L573 101L532 101L532 101L491 101L491 101L450 101L450 101L409 101L409 101L368 101L368 101L327 101L327 101L286 101L286 101L245 101L245 101L205 101L205 101L164 101L164 101L123 101L123 101L82 101L82 101L41 101L41 101L0 101Z" fill="#7e848f"></path><path d="M0 85L41 85L41 64L82 64L82 74L123 74L123 72L164 72L164 84L205 84L205 82L245 82L245 62L286 62L286 85L327 85L327 78L368 78L368 81L409 81L409 80L450 80L450 85L491 85L491 78L532 78L532 65L573 65L573 62L614 62L614 72L655 72L655 74L695 74L695 84L736 84L736 83L777 83L777 72L818 72L818 83L859 83L859 84L900 84L900 79L900 101L900 101L859 101L859 101L818 101L818 101L777 101L777 101L736 101L736 101L695 101L695 101L655 101L655 101L614 101L614 101L573 101L573 101L532 101L532 101L491 101L491 101L450 101L450 101L409 101L409 101L368 101L368 101L327 101L327 101L286 101L286 101L245 101L245 101L205 101L205 101L164 101L164 101L123 101L123 101L82 101L82 101L41 101L41 101L0 101Z" fill="#93a2b7"></path></svg>