<svg id="visual" viewBox="0 0 900 100" width="900" height="100" xmlns="http://www.w3.org/2000/svg" xmlns:xlink="http://www.w3.org/1999/xlink" version="1.1"><path d="M0 25L129 16L257 31L386 22L514 26L643 23L771 34L900 47L900 101L771 101L643 101L514 101L386 101L257 101L129 101L0 101Z" fill="#001122"></path><path d="M0 57L129 33L257 47L386 50L514 52L643 58L771 45L900 34L900 101L771 101L643 101L514 101L386 101L257 101L129 101L0 101Z" fill="#091727"></path><path d="M0 54L129 63L257 63L386 67L514 54L643 50L771 56L900 67L900 101L771 101L643 101L514 101L386 101L257 101L129 101L0 101Z" fill="#111d2c"></path><path d="M0 61L129 79L257 70L386 75L514 74L643 62L771 62L900 68L900 101L771 101L643 101L514 101L386 101L257 101L129 101L0 101Z" fill="#182331"></path><path d="M0 91L129 79L257 88L386 77L514 74L643 88L771 77L900 84L900 101L771 101L643 101L514 101L386 101L257 101L129 101L0 101Z" fill="#1f2937"></path></svg>