<?xml version="1.0" standalone="no"?>
<!DOCTYPE svg PUBLIC "-//W3C//DTD SVG 20010904//EN"
 "http://www.w3.org/TR/2001/REC-SVG-20010904/DTD/svg10.dtd">
<svg version="1.0" xmlns="http://www.w3.org/2000/svg"
 width="500.000000pt" height="500.000000pt" viewBox="0 0 500.000000 500.000000"
 preserveAspectRatio="xMidYMid meet">
<metadata>
Created by potrace 1.16, written by Peter Selinger 2001-2019
</metadata>
<g transform="translate(0.000000,500.000000) scale(0.100000,-0.100000)"
fill="#764BEF" stroke="none">
<path d="M800 3560 l-715 -709 715 -715 c393 -394 719 -716 725 -716 6 0 449
439 985 975 l975 975 112 -112 c62 -62 113 -117 113 -123 0 -5 -492 -502
-1093 -1103 l-1092 -1092 -608 607 c-334 334 -607 609 -607 610 0 1 29 29 65
64 36 34 65 67 65 73 0 7 -23 34 -50 61 l-50 50 -126 -126 -125 -125 711 -710
c391 -390 716 -711 722 -713 6 -2 307 293 669 655 l659 659 313 -313 c171
-171 317 -312 322 -312 13 0 875 862 875 875 0 6 -23 33 -50 60 l-50 50 -388
-388 -387 -387 -263 262 c-144 145 -261 265 -260 268 0 3 196 198 435 435
l433 430 430 -430 c237 -236 430 -434 430 -440 0 -6 -271 -281 -603 -613
l-602 -602 -385 385 c-212 212 -389 385 -395 385 -6 0 -33 -23 -60 -50 l-50
-50 440 -440 c242 -242 444 -440 450 -440 13 0 1425 1412 1425 1425 0 13
-1412 1425 -1425 1425 -5 0 -449 -439 -985 -975 l-975 -975 -118 117 c-64 64
-117 117 -117 118 0 0 494 494 1097 1098 l1098 1097 602 -602 c332 -332 603
-607 603 -613 0 -5 -30 -40 -67 -77 l-67 -68 49 -50 c27 -27 54 -50 59 -50 14
0 246 232 246 245 0 13 -1412 1425 -1425 1425 -5 0 -306 -296 -667 -657 l-658
-658 -313 313 c-171 171 -317 312 -322 312 -6 0 -208 -198 -450 -440 l-440
-440 50 -50 c27 -27 54 -50 60 -50 6 0 183 173 395 385 l385 385 259 -259
c158 -158 257 -264 254 -273 -3 -7 -199 -203 -435 -435 l-429 -422 -432 432
c-238 237 -432 432 -432 432 0 0 273 274 607 608 l608 607 387 -387 388 -388
50 50 c27 27 50 54 50 60 0 13 -862 875 -875 875 -6 -1 -332 -320 -725 -710z"/>
</g>
</svg>
